# xmcd CD database file
#
# Track frame offsets:
#	150
#	20060
#	41275
#	63613
#	81648
#	104395
#	123978
#	139690
#	160205
#	181780
#
# Disc length: 2704 seconds
#
# Revision: 4
# Processed by: cddbd v1.4PL0 Copyright (c) Steve Scherf et al.
# Submitted via: CDex 1.50beta10
#
DISCID=850a8e0a
DTITLE=Strangeways - Native Sons
DYEAR=1987
DGENRE=Rock
TTITLE0=Dance With Somebody
TTITLE1=Only A Fool
TTITLE2=So Far Away
TTITLE3=Where Do We Go From Here
TTITLE4=Goodnight L.A.
TTITLE5=Empty Streets
TTITLE6=Stand Up And Shout
TTITLE7=Shake The Seven
TTITLE8=Never Going To Lose It
TTITLE9=Face To Face
EXTD=YEAR: 1987
EXTT0=
EXTT1=
EXTT2=
EXTT3=
EXTT4=
EXTT5=
EXTT6=
EXTT7=
EXTT8=
EXTT9=
PLAYORDER=
